<svg width="120" height="120" viewBox="0 0 120 120" fill="none" xmlns="http://www.w3.org/2000/svg">
<g clip-path="url(#clip0_75_97)">
<path d="M0 67.8402C0 62.6134 0 57.4047 0 52.1597C5.22683 52.1597 10.4356 52.1597 15.7167 52.1597C15.7167 54.5652 15.7167 56.9706 15.7167 59.4484C17.9231 59.4484 20.0392 59.4484 22.2276 59.4484C22.2276 57.061 22.2276 54.6737 22.2276 52.1959C27.5268 52.1959 32.7536 52.1959 38.0527 52.1959C38.0527 54.5833 38.0527 56.9887 38.0527 59.4484C40.2592 59.4484 42.3753 59.4484 44.6179 59.4484C44.6179 57.061 44.6179 54.6375 44.6179 52.1055C47.15 52.1055 49.5735 52.1055 52.0693 52.1055C52.0693 49.6096 52.0693 47.2042 52.0693 44.6903C54.5652 44.6903 56.9706 44.6903 59.4484 44.6903C59.4484 39.9518 59.4484 35.3399 59.4484 30.6375C57.0068 30.6375 54.6014 30.6375 52.1417 30.6375C52.1417 20.3828 52.1417 10.2185 52.1417 0.0180664C54.8907 0.0180664 57.5855 0.0180664 60.3888 0.0180664C60.3888 2.47775 60.3888 4.90126 60.3888 7.4152C62.9209 7.4152 65.3444 7.4152 67.8222 7.4152C67.8222 12.6963 67.8222 17.8869 67.8222 23.1861C65.3625 23.1861 62.939 23.1861 60.4612 23.1861C60.4612 25.3926 60.4612 27.5267 60.4612 29.7332C62.9209 29.7332 65.3444 29.7332 67.8222 29.7332C67.8222 35.0505 67.8222 40.2592 67.8222 45.5584C65.3806 45.5584 62.9751 45.5584 60.4974 45.5584C60.4974 47.7649 60.4974 49.899 60.4974 52.1236C67.8945 52.1236 75.2735 52.1236 82.743 52.1236C82.743 57.0972 82.743 61.9804 82.743 67.0083C87.7528 67.0083 92.6722 67.0083 97.6277 67.0083C97.6277 72.3255 97.6277 77.5343 97.6277 82.7973C90.2306 82.7973 82.8696 82.7973 75.4182 82.7973C75.4182 85.0219 75.4182 87.156 75.4182 89.3806C77.8417 89.3806 80.2291 89.3806 82.7611 89.3806C82.7611 91.8764 82.7611 94.2818 82.7611 96.7596C85.0038 96.7596 87.1198 96.7596 89.3444 96.7596C89.3444 94.318 89.3444 91.9307 89.3444 89.471C94.6436 89.471 99.8342 89.471 105.115 89.471C105.115 91.8764 105.115 94.2638 105.115 96.7777C107.611 96.7777 110.035 96.7777 112.567 96.7777C112.567 99.3097 112.567 101.733 112.567 104.265C115.081 104.265 117.504 104.265 119.982 104.265C119.982 109.564 119.982 114.755 119.982 120.018C114.773 120.018 109.583 120.018 104.283 120.018C104.283 112.657 104.283 105.26 104.283 97.8086C99.581 97.8086 95.0053 97.8086 90.3391 97.8086C90.3391 99.9246 90.3391 102.041 90.3391 104.265C92.7626 104.265 95.1861 104.265 97.6458 104.265C97.6458 109.564 97.6458 114.755 97.6458 120.018C94.9148 120.018 92.22 120.018 89.3986 120.018C89.3986 115.099 89.3986 110.197 89.3986 105.224C87.1379 105.224 85.0219 105.224 82.8154 105.224C82.8154 110.161 82.8154 115.044 82.8154 120.018C77.5343 120.018 72.3436 120.018 67.0264 120.018C67.0264 115.117 67.0264 110.197 67.0264 105.224C64.7837 105.224 62.6496 105.224 60.4431 105.224C60.4431 110.161 60.4431 115.063 60.4431 120.018C57.6398 120.018 54.9088 120.018 52.1598 120.018C52.1598 114.755 52.1598 109.564 52.1598 104.283C54.6014 104.283 57.0068 104.283 59.4665 104.283C59.4665 102.077 59.4665 99.9608 59.4665 97.7182C57.0429 97.7182 54.6194 97.7182 52.1598 97.7182C52.1598 94.8968 52.1598 92.202 52.1598 89.3986C57.0972 89.3986 61.9985 89.3986 66.9359 89.3986C66.9359 87.1741 66.9359 85.058 66.9359 82.8335C61.9985 82.8335 57.1153 82.8335 52.1236 82.8335C52.1236 77.8417 52.1236 72.9585 52.1236 67.9307C47.1138 67.9307 42.2125 67.9307 37.2208 67.9307C37.2208 65.3986 37.2208 63.0113 37.2208 60.5154C32.5365 60.5154 27.9246 60.5154 23.2042 60.5154C23.2042 62.9209 23.2042 65.3444 23.2042 67.8402C15.4273 67.8402 7.74077 67.8402 0 67.8402ZM67.0083 66.9721C67.0083 65.3082 67.0083 63.7528 67.0083 62.1974C67.0083 60.4069 67.0083 60.4069 65.1997 60.4069C63.3368 60.4069 61.4921 60.4069 59.5026 60.4069C59.5026 57.893 59.5026 55.4695 59.5026 53.046C57.2781 53.046 55.1982 53.046 53.0821 53.046C53.0821 57.7121 53.0821 62.324 53.0821 66.954C57.7302 66.9721 62.2879 66.9721 67.0083 66.9721ZM74.4597 81.8568C74.4597 79.3791 74.4597 76.9555 74.4597 74.4416C76.9736 74.4416 79.3971 74.4416 81.8387 74.4416C81.8387 72.2351 81.8387 70.101 81.8387 67.9668C77.1726 67.9668 72.5788 67.9668 67.9488 67.9668C67.9488 72.633 67.9488 77.2087 67.9488 81.8387C70.1191 81.8568 72.217 81.8568 74.4597 81.8568ZM81.8568 97.6639C79.3429 97.6639 76.9194 97.6639 74.4235 97.6639C74.4235 95.1681 74.4235 92.7626 74.4235 90.3572C72.217 90.3572 70.101 90.3572 67.9488 90.3572C67.9488 95.0053 67.9488 99.5991 67.9488 104.211C72.6149 104.211 77.2268 104.211 81.8568 104.211C81.8568 102.023 81.8568 99.9246 81.8568 97.6639Z" fill="#0E0802"/>
<path d="M0 45.4679C0 30.33 0 15.2102 0 0.0180664C15.156 0.0180664 30.2939 0.0180664 45.4861 0.0180664C45.4861 15.1379 45.4861 30.2758 45.4861 45.486C30.3482 45.4679 15.2102 45.4679 0 45.4679ZM37.1485 37.1484C37.1485 27.5086 37.1485 17.9412 37.1485 8.33758C27.5268 8.33758 17.9593 8.33758 8.37378 8.33758C8.37378 17.9593 8.37378 27.5448 8.37378 37.1484C17.9955 37.1484 27.5448 37.1484 37.1485 37.1484Z" fill="#0E0802"/>
<path d="M120 45.5222C104.808 45.5222 89.688 45.5222 74.532 45.5222C74.532 30.3662 74.532 15.2464 74.532 0.0361328C89.6519 0.0361328 104.808 0.0361328 120 0.0361328C120 15.174 120 30.3119 120 45.5222ZM82.8877 8.35565C82.8877 18.0135 82.8877 27.5991 82.8877 37.1484C92.5275 37.1484 102.077 37.1484 111.662 37.1484C111.662 27.5267 111.662 17.9593 111.662 8.35565C102.041 8.35565 92.4913 8.35565 82.8877 8.35565Z" fill="#0E0802"/>
<path d="M0 74.4778C15.1922 74.4778 30.312 74.4778 45.4861 74.4778C45.4861 89.6338 45.4861 104.754 45.4861 119.964C30.3482 119.964 15.2102 119.964 0 119.964C0 104.826 0 89.7061 0 74.4778ZM37.1485 111.662C37.1485 102.005 37.1485 92.4552 37.1485 82.8696C27.5087 82.8696 17.9412 82.8696 8.35569 82.8696C8.35569 92.4914 8.35569 102.059 8.35569 111.662C17.9774 111.662 27.5268 111.662 37.1485 111.662Z" fill="#0E0802"/>
<path d="M89.3987 60.4249C89.3987 57.5854 89.3987 54.9087 89.3987 52.1597C99.581 52.1597 109.745 52.1597 119.964 52.1597C119.964 57.3503 119.964 62.541 119.964 67.804C114.755 67.804 109.546 67.804 104.247 67.804C104.247 65.3624 104.247 62.9389 104.247 60.4068C99.2736 60.4249 94.3723 60.4249 89.3987 60.4249Z" fill="#0E0802"/>
<path d="M104.32 74.4778C109.564 74.4778 114.737 74.4778 119.982 74.4778C119.982 79.7227 119.982 84.9314 119.982 90.2125C117.269 90.2125 114.538 90.2125 111.735 90.2125C111.735 87.7709 111.735 85.3474 111.735 82.8335C109.221 82.8335 106.797 82.8335 104.32 82.8335C104.32 80.0121 104.32 77.2811 104.32 74.4778Z" fill="#0E0802"/>
<path d="M30.5652 30.5833C25.3745 30.5833 20.1839 30.5833 14.9209 30.5833C14.9209 25.3565 14.9209 20.1658 14.9209 14.9209C20.0934 14.9209 25.2841 14.9209 30.5652 14.9209C30.5652 20.1116 30.5652 25.3203 30.5652 30.5833Z" fill="#0E0802"/>
<path d="M105.115 30.5833C99.9066 30.5833 94.6978 30.5833 89.4348 30.5833C89.4348 25.3565 89.4348 20.1477 89.4348 14.9028C94.6797 14.9028 99.8704 14.9028 105.115 14.9028C105.115 20.1477 105.115 25.3384 105.115 30.5833Z" fill="#0E0802"/>
<path d="M14.9209 105.097C14.9209 99.8523 14.9209 94.6617 14.9209 89.4167C20.1658 89.4167 25.3564 89.4167 30.6013 89.4167C30.6013 94.6617 30.6013 99.8523 30.6013 105.097C25.3384 105.097 20.1477 105.097 14.9209 105.097Z" fill="#0E0802"/>
</g>
<defs>
<clipPath id="clip0_75_97">
<rect width="120" height="120" fill="white"/>
</clipPath>
</defs>
</svg>
